HIERARCHY
ROOT Hips
{
	OFFSET -0.179506 -22.333345 2.821913
	CHANNELS 6 Xposition Yposition Zposition Zrotation Yrotation Xrotation 
	JOINT LeftUpLeg
	{
		OFFSET 6.951974 -9.140623 -0.681533
		CHANNELS 3 Zrotation Yrotation Xrotation
		JOINT LeftLeg
		{
			OFFSET 3.427654 -37.519855 -0.449580
			CHANNELS 3 Zrotation Yrotation Xrotation
			JOINT LeftFoot
			{
				OFFSET -1.359570 -39.796059 -4.369333
				CHANNELS 3 Zrotation Yrotation Xrotation
				JOINT LeftToe
				{
					OFFSET 2.635814 -5.579078 11.928840
					CHANNELS 3 Zrotation Yrotation Xrotation
					End Site
					{
						OFFSET 0.000000 0.000000 0.000000
					}
				}
			}
		}
	}
	JOINT RightUpLeg
	{
		OFFSET -6.767048 -9.052170 -0.431982
		CHANNELS 3 Zrotation Yrotation Xrotation
		JOINT RightLeg
		{
			OFFSET -3.829005 -38.256897 -0.885003
			CHANNELS 3 Zrotation Yrotation Xrotation
			JOINT RightFoot
			{
				OFFSET 1.577377 -39.841461 -4.231180
				CHANNELS 3 Zrotation Yrotation Xrotation
				JOINT RightToe
				{
					OFFSET -2.537174 -4.814398 12.334795
					CHANNELS 3 Zrotation Yrotation Xrotation
					End Site
					{
						OFFSET 0.000000 0.000000 0.000000
					}
				}
			}
		}
	}
	JOINT Spine
	{
		OFFSET -0.253288 10.896323 -2.669631
		CHANNELS 3 Zrotation Yrotation Xrotation
		JOINT Spine1
		{
			OFFSET 0.548704 13.518043 0.109247
			CHANNELS 3 Zrotation Yrotation Xrotation
			JOINT Spine2
			{
				OFFSET 0.145701 5.292222 2.542457
				CHANNELS 3 Zrotation Yrotation Xrotation
				JOINT Neck
				{
					OFFSET -0.277840 21.387037 -4.285703
					CHANNELS 3 Zrotation Yrotation Xrotation
					JOINT Head
					{
						OFFSET 0.515184 6.496960 5.134897
						CHANNELS 3 Zrotation Yrotation Xrotation
						End Site
						{
							OFFSET 0.000000 0.000000 0.000000
						}
					}
				}
				JOINT LeftShoulder
				{
					OFFSET 7.884473 12.174932 -3.408961
					CHANNELS 3 Zrotation Yrotation Xrotation
					JOINT LeftArm
					{
						OFFSET 9.097692 3.046888 -0.886815
						CHANNELS 3 Zrotation Yrotation Xrotation
						JOINT LeftForeArm
						{
							OFFSET 25.961220 -1.277207 -2.745643
							CHANNELS 3 Zrotation Yrotation Xrotation
							JOINT LeftHand
							{
								OFFSET 24.923361 0.898606 -0.117091
								CHANNELS 3 Zrotation Yrotation Xrotation
								End Site
								{
									OFFSET 0.000000 0.000000 0.000000
								}
							}
						}
					}
				}
				JOINT RightShoulder
				{
					OFFSET -8.175920 11.883285 -3.861528
					CHANNELS 3 Zrotation Yrotation Xrotation
					JOINT RightArm
					{
						OFFSET -9.601238 3.255117 -0.914307
						CHANNELS 3 Zrotation Yrotation Xrotation
						JOINT RightForeArm
						{
							OFFSET -25.374195 -1.332924 -2.140099
							CHANNELS 3 Zrotation Yrotation Xrotation
							JOINT RightHand
							{
								OFFSET -25.529810 0.777228 -0.555919
								CHANNELS 3 Zrotation Yrotation Xrotation
								End Site
								{
									OFFSET 0.000000 0.000000 0.000000
								}
							}
						}
					}
				}
			}
		}
	}
}
MOTION
Frames: 17
Frame Time: 0.033333
147.872192 -14.876700 99.349808 178.511565 0.759839 89.105558 -0.271536 -2.454505 -0.407922 -3.863720 -7.248367 6.485649 5.344444 11.773994 -8.044933 nan nan nan -2.694399 -2.440008 1.830556 4.175187 1.782682 3.781746 6.499971 -5.404482 -1.863414 nan nan nan -2.415898 3.161344 4.340728 6.004863 -4.860441 6.308047 2.307768 -0.390800 -1.024469 0.527367 1.291574 4.890539 4.585261 2.136848 -5.640271 -21.905149 0.969480 2.730840 -63.374089 -5.761597 19.345487 9.636018 -23.262448 3.522077 -2.017397 -20.366686 -14.079698 23.606195 2.131476 -0.052262 59.601748 2.182369 8.834579 -20.883922 20.417741 -20.907181 -1.344631 12.524708 -15.101427 
148.064102 -14.901413 99.423790 178.869566 0.632252 89.090471 -0.144117 -2.468597 -0.214720 -3.985989 -7.505937 6.099740 5.153366 11.529027 -7.791312 nan nan nan -2.669012 -2.670236 2.250048 4.091464 1.696115 3.118434 6.404064 -5.490416 -1.573012 nan nan nan -2.786097 3.088056 4.209841 6.041145 -5.066709 6.258091 2.383542 -0.454641 -1.059500 0.558806 1.284781 5.374783 4.272676 2.312390 -5.765171 -21.844630 0.943992 2.888590 -63.315384 -6.003076 19.417823 9.523989 -23.081812 3.790382 -2.281845 -20.562656 -14.357017 23.530557 1.930661 -0.128680 60.299284 1.973969 9.100935 -21.385598 20.628711 -20.768229 -1.226922 12.453350 -15.483951 
148.247498 -14.909917 99.503922 179.099089 0.468733 89.137051 -0.142303 -2.601306 -0.004847 -3.982605 -7.567128 5.605500 5.025312 11.349262 -7.516266 nan nan nan -2.702191 -2.846903 2.634986 4.025622 1.625123 2.390468 6.436554 -5.500180 -1.288277 nan nan nan -3.085329 3.046093 3.845115 5.994674 -5.205977 6.376971 2.294301 -0.491968 -1.117034 0.417837 1.410328 5.563828 4.393543 1.994777 -5.199855 -21.605181 1.069099 2.757238 -63.406213 -6.258202 19.699947 9.481565 -22.631361 3.862353 -2.558946 -20.798378 -14.385045 23.683617 1.705462 -0.135392 60.880264 1.982695 9.370110 -21.810224 20.531541 -21.033124 -1.233849 12.447758 -15.676955 
148.399261 -14.914705 99.575829 179.271743 0.333151 89.126535 -0.189613 -2.581486 0.301617 -3.903987 -7.575908 5.061069 4.930205 11.148704 -7.303362 nan nan nan -2.746695 -3.113758 3.065685 3.972210 1.586631 1.686195 6.554979 -5.400843 -1.006231 nan nan nan -3.276683 3.036157 3.592749 5.900589 -5.284360 6.430431 2.270145 -0.555898 -1.140517 0.308587 1.501729 6.130892 4.110189 2.031298 -5.649714 -21.496878 1.208109 2.208310 -63.454052 -6.233570 19.985239 9.361843 -22.124217 4.030894 -2.031340 -20.946539 -14.223367 23.657954 1.451011 -0.315467 61.444966 2.100411 9.408932 -21.857473 20.279352 -21.036474 -1.558609 12.573195 -15.727117 
148.526932 -14.912324 99.635704 179.431945 0.247503 89.153458 -0.196539 -2.532112 0.586765 -3.835746 -7.599551 4.493056 4.877168 10.970583 -7.126003 nan nan nan -2.765830 -3.381225 3.445546 3.953548 1.464457 0.996951 6.621381 -5.202778 -0.731994 nan nan nan -3.420606 3.035327 3.364633 5.847295 -5.365008 6.176576 2.166685 -0.641712 -0.918975 0.015406 1.403697 6.411805 4.429962 1.978500 -5.524174 -21.415350 1.094716 2.439751 -63.460216 -6.478484 19.872867 9.396502 -21.909966 4.023963 -1.434419 -21.165512 -14.155617 23.678227 1.222586 -0.589530 61.755692 2.366873 8.846664 -21.347317 19.964305 -21.161316 -1.711318 12.733370 -15.189513 
148.654129 -14.919533 99.679031 179.462093 0.198534 89.262391 -0.206927 -2.504171 0.810776 -3.651738 -7.554742 3.848429 4.863181 10.808537 -6.986631 nan nan nan -2.755520 -3.588394 3.682938 3.958093 1.314980 0.374914 6.649596 -4.914455 -0.461922 nan nan nan -3.462934 2.978937 2.983310 5.767033 -5.288236 6.038680 2.008914 -0.572261 -0.802115 -0.152038 1.398564 6.811991 4.604370 1.742821 -5.430465 -21.295765 1.196924 2.100820 -63.490909 -6.648804 20.044316 9.188817 -21.431238 4.067215 -1.514462 -21.724297 -13.986299 23.602431 0.837182 -0.810693 62.115816 2.482368 8.391981 -20.874839 19.828142 -21.471763 -1.541230 12.967858 -14.747425 
148.790329 -14.936146 99.708855 179.371216 0.178677 89.469158 -0.191200 -2.429944 0.926095 -3.434650 -7.551646 3.170435 4.789769 10.748353 -6.843943 nan nan nan -2.680816 -3.671148 3.751271 3.951632 1.375942 -0.234386 6.625208 -4.830138 -0.164892 nan nan nan -3.482867 3.005301 2.518390 5.675843 -5.234021 5.990736 1.945136 -0.595028 -0.822190 -0.423987 1.343663 7.054273 4.587897 1.784432 -5.206111 -21.527317 1.014839 2.627683 -63.217946 -6.763720 19.645144 9.446130 -21.662121 3.771609 -1.836144 -21.996450 -13.953626 23.586723 0.790645 -0.603641 62.427411 2.397440 7.891382 -20.817494 20.049919 -21.519848 -1.275934 13.058453 -14.263329 
148.929749 -14.956841 99.711220 179.252998 0.130430 89.720607 -0.204102 -2.410760 0.953354 -3.250297 -7.355765 2.663594 4.733114 10.624944 -6.670916 nan nan nan -2.620380 -3.638391 3.737153 3.917078 1.368172 -0.744396 6.745760 -4.794886 -0.031122 nan nan nan -3.570480 3.059430 1.989850 5.573656 -5.098333 5.985658 1.831361 -0.516576 -0.893824 -0.651754 1.409632 7.263941 4.772461 1.262644 -4.909277 -21.383142 1.269803 2.406007 -63.337021 -6.925459 19.898520 9.566389 -21.414809 3.666798 -2.561940 -22.013988 -13.672593 23.741851 0.517077 -0.463060 62.768543 2.044335 8.180291 -21.191377 20.436580 -21.479101 -1.168842 13.068472 -14.561946 
149.063599 -14.964616 99.692604 179.121256 0.058359 89.918389 -0.200421 -2.406096 1.023526 -3.237915 -7.181328 2.309909 4.714355 10.683462 -6.407348 nan nan nan -2.617841 -3.562635 3.810160 3.904198 1.330242 -1.228323 6.928069 -4.741248 0.027918 nan nan nan -3.716579 3.161666 1.554694 5.500192 -4.970359 5.938725 1.726788 -0.445133 -0.925329 -0.746964 1.503557 7.410594 4.949819 0.935056 -4.509595 -21.118212 1.498657 2.230434 -63.618481 -6.992140 20.314149 9.867366 -21.346155 3.725065 -2.651436 -21.723266 -13.896145 23.797524 0.293646 -0.383777 63.205525 1.357877 9.005757 -21.787429 21.098253 -21.169174 -1.310761 12.934025 -16.009821 
149.190308 -14.966115 99.666580 178.916607 0.015466 89.991109 -0.140192 -2.353056 1.292715 -3.207929 -7.137081 1.706083 4.741874 10.764393 -6.179970 nan nan nan -2.590910 -3.449845 4.045264 3.872773 1.398977 -1.788245 7.043062 -4.655370 0.202980 nan nan nan -3.750271 3.279334 1.313122 5.386272 -4.809645 5.890131 1.660263 -0.433773 -0.977121 -0.776276 1.546693 7.478864 4.717979 0.909275 -4.253025 -20.986410 1.697581 2.149379 -63.803885 -6.981101 20.521030 10.191312 -21.437503 3.814213 -2.192693 -21.397282 -14.367705 23.726319 0.108201 -0.407862 63.663359 0.898201 9.604312 -22.121414 21.509912 -20.869939 -1.567536 12.757291 -17.148696 
149.309875 -14.971315 99.644043 178.688134 -0.028730 90.059586 -0.091312 -2.333067 1.539558 -3.154649 -6.982533 1.157609 4.704035 10.744952 -5.996550 nan nan nan -2.544662 -3.308969 4.271350 3.803603 1.437487 -2.383455 7.019633 -4.560634 0.580837 nan nan nan -3.716045 3.399255 1.108357 5.269359 -4.679060 5.887497 1.577150 -0.399716 -1.068535 -0.872160 1.705993 7.863041 4.371352 1.067655 -4.610869 -20.992536 1.923929 1.908106 -63.759276 -6.930123 20.601555 10.174317 -21.559886 3.849473 -1.921283 -21.351948 -14.548108 23.642767 -0.096500 -0.473938 64.050822 0.795401 9.752832 -22.136857 21.573740 -20.821869 -1.615955 12.716641 -17.309702 
149.423172 -14.962352 99.622559 178.495992 -0.081625 90.142606 -0.067626 -2.144322 1.718749 -3.121107 -6.544645 0.704744 4.519895 10.513472 -5.662518 nan nan nan -2.523909 -3.210529 4.437118 3.738897 1.364800 -2.886318 7.056060 -4.423371 0.935464 nan nan nan -3.695855 3.456085 0.923628 5.182090 -4.576696 5.833568 1.460855 -0.307694 -1.150522 -1.003314 1.840411 8.232705 4.213842 0.956508 -4.944029 -21.091483 2.136920 1.816141 -63.603261 -6.970547 20.556832 10.086218 -21.734007 3.639188 -2.070611 -21.554733 -14.341689 23.676364 -0.246610 -0.297570 64.267824 0.862394 9.621463 -22.051466 21.639484 -20.942061 -1.433458 12.807274 -16.868876 
149.533279 -14.943257 99.592850 178.340009 -0.099332 90.186753 -0.034190 -2.029808 2.067270 -2.956202 -6.578260 0.014139 4.472498 10.425387 -5.691965 nan nan nan -2.490597 -3.150496 4.641387 3.722741 1.354894 -3.315582 7.151173 -4.380998 0.990651 nan nan nan -3.603903 3.430940 0.701648 5.041315 -4.474356 5.838761 1.240895 -0.179758 -1.188808 -0.823595 2.147451 7.692126 4.428412 0.588957 -3.648695 -21.149327 2.355691 1.814046 -63.489244 -7.106234 20.546842 10.179974 -21.853738 3.345612 -2.243611 -21.774836 -13.952846 24.062703 -0.348598 -0.023466 64.195609 0.935490 9.582904 -22.042714 21.734125 -21.117553 -1.257699 12.849913 -16.172511 
149.647141 -14.924084 99.552116 178.125766 -0.200475 90.161831 -0.011507 -1.796084 2.470378 -2.964443 -6.636371 -0.590811 4.472781 10.330597 -5.549145 nan nan nan -2.547762 -3.014751 4.940299 3.695636 1.292615 -3.776466 7.216771 -4.350046 1.056752 nan nan nan -3.639291 3.430286 0.636872 4.938400 -4.360950 5.705160 1.144918 -0.025013 -1.083788 -0.978926 2.108901 7.950710 4.252456 0.404594 -4.143857 -21.205525 2.522170 1.666335 -63.419445 -7.071809 20.453302 10.220080 -22.084999 3.250925 -2.095570 -21.712136 -13.564196 24.105331 -0.422220 -0.003561 64.369557 0.836174 9.568541 -22.002492 21.891868 -20.867489 -1.248950 12.765820 -15.710687 
149.768433 -14.910233 99.509407 177.865301 -0.308899 90.201539 0.013337 -1.537947 2.785504 -2.989716 -6.626882 -1.203622 4.489917 10.272079 -5.349522 nan nan nan -2.570160 -2.937111 5.141022 3.601384 1.411755 -4.230871 7.254520 -4.299213 1.206025 nan nan nan -3.790430 3.554520 0.342511 4.880736 -4.209901 5.909666 1.126055 0.015497 -1.174109 -0.905904 2.138891 7.977744 4.078522 0.282710 -4.111925 -21.272644 2.651713 1.529148 -63.423302 -7.017402 20.508302 10.287895 -22.236309 3.137366 -1.515102 -21.474673 -13.370514 24.224323 -0.421549 0.018542 64.424528 0.742962 9.803954 -21.919185 21.865078 -20.856332 -1.797686 12.935264 -15.993887 
149.903000 -14.880665 99.456345 177.681047 -0.429455 90.284320 0.012567 -1.368226 3.051945 -2.968015 -6.655769 -1.798992 4.539287 10.227203 -5.126612 nan nan nan -2.611748 -2.908388 5.328636 3.533250 1.557520 -4.711643 7.266076 -4.201295 1.426117 nan nan nan -3.959897 3.716719 0.140385 4.790408 -4.063392 5.707997 1.169590 -0.063794 -1.103757 -0.815008 2.347007 8.025134 3.913370 0.458446 -4.019024 -21.413164 2.898097 1.467670 -63.282505 -6.958757 20.574376 10.237553 -22.464426 3.111790 -1.106400 -21.453479 -13.660180 24.293274 -0.536097 0.062867 64.481006 0.663297 10.130238 -21.772962 21.790397 -20.563943 -2.147987 13.143304 -16.483647 
150.031281 -14.853991 99.405235 177.557719 -0.486619 90.330092 0.067826 -1.326766 3.367230 -2.929625 -6.551332 -2.410903 4.481674 10.168596 -4.922358 nan nan nan -2.606942 -2.855332 5.558906 3.508707 1.625012 -5.195229 7.331605 -4.150229 1.625452 nan nan nan -3.965538 3.768777 0.106191 4.643901 -3.984184 5.212276 1.135295 -0.055291 -0.819874 -0.747002 2.492954 8.144611 3.738036 0.622915 -4.131749 -21.534494 3.183651 1.325165 -63.131391 -6.912331 20.629153 10.234224 -22.649709 2.931864 -1.161008 -21.742187 -14.020930 24.270617 -0.666248 -0.028516 64.639807 0.493019 10.513289 -21.711245 21.729926 -20.140524 -1.854732 13.102566 -16.818652 
